
<svg xmlns="http://www.w3.org/2000/svg" version="1.1" x="0" y="0" viewBox="0 0 275 64" xml:space="preserve" enable-background="new 0 0 275 64"><g id="Layer_1_1_"><path d="M90.08 30.94c5.72 1.25 8.36 3.33 8.36 7.3 0 4.43-3.66 7.28-8.76 7.28 -4.07 0-7.4-1.35-10.47-4.1l1.8-2.12c2.66 2.42 5.24 3.62 8.79 3.62 3.44 0 5.72-1.8 5.72-4.39 0-2.42-1.28-3.77-6.67-4.91 -5.9-1.28-8.61-3.19-8.61-7.44 0-4.1 3.55-7.03 8.42-7.03 3.74 0 6.42 1.06 9.02 3.15l-1.68 2.23c-2.38-1.94-4.77-2.78-7.4-2.78 -3.34 0-5.47 1.83-5.47 4.17C83.12 28.38 84.45 29.73 90.08 30.94z" fill="#FFF"/><path d="M111.31 43.14c2.6 0 4.43-1.06 5.97-2.68l1.76 1.58c-1.91 2.13-4.21 3.55-7.81 3.55 -5.2 0-9.45-3.99-9.45-9.89 0-5.49 3.85-9.89 9.09-9.89 5.6 0 8.83 4.47 8.83 10.04 0 0.26 0 0.55-0.03 0.87h-15.02C105.04 40.83 107.98 43.14 111.31 43.14zM116.84 34.64c-0.3-3.45-2.27-6.45-6.05-6.45 -3.29 0-5.78 2.74-6.15 6.45H116.84z" fill="#FFF"/><path d="M132.09 43.14c2.59 0 4.43-1.06 5.97-2.68l1.76 1.58c-1.91 2.13-4.21 3.55-7.8 3.55 -5.2 0-9.46-3.99-9.46-9.89 0-5.49 3.86-9.89 9.09-9.89 5.61 0 8.83 4.47 8.83 10.04 0 0.26 0 0.55-0.03 0.87h-15.03C125.83 40.83 128.75 43.14 132.09 43.14zM137.62 34.64c-0.3-3.45-2.27-6.45-6.05-6.45 -3.29 0-5.78 2.74-6.16 6.45H137.62z" fill="#FFF"/><path d="M161.33 45.16h-3.37l-6.77-8.83 -3.85 3.88v4.95h-2.82v-26.75h2.82v18.46l10.23-10.66h3.51l-7.95 8.13L161.33 45.16z" fill="#FFF"/><path d="M165.18 29.84l-0.84-2.32c2.09-0.95 4.14-1.57 6.89-1.57 5.17 0 8.07 2.64 8.07 7.62v11.58h-2.72v-2.85c-1.32 1.72-3.52 3.26-6.84 3.26 -3.52 0-7.07-1.98-7.07-5.94 0-4.03 3.3-6.16 8.1-6.16 2.41 0 4.14 0.33 5.82 0.8v-0.66c0-3.41-2.09-5.17-5.63-5.17C168.69 28.45 166.94 29.03 165.18 29.84zM165.51 39.52c0 2.41 2.19 3.81 4.75 3.81 3.48 0 6.34-2.12 6.34-5.13V36.36c-1.39-0.4-3.26-0.8-5.56-0.8C167.48 35.56 165.51 37.09 165.51 39.52z" fill="#FFF"/><path d="M187.21 45.16h-2.83V26.22h2.83v3.29c1.24-2.04 3.22-3.69 6.48-3.69 4.58 0 7.26 3.07 7.26 7.59v11.76h-2.82V34.09c0-3.52-1.91-5.71-5.25-5.71 -3.25 0-5.67 2.38-5.67 5.94V45.16z" fill="#FFF"/><path d="M221.24 45.16v-3.81c-1.53 2.27-3.77 4.22-7.25 4.22 -4.55 0-9.05-3.59-9.05-9.86 0-6.23 4.5-9.89 9.05-9.89 3.52 0 5.79 1.9 7.25 4.03V18.41h2.82v26.75H221.24zM214.5 28.34c-3.66 0-6.67 2.71-6.67 7.32 0 4.51 3.08 7.36 6.67 7.36 3.52 0 6.85-2.92 6.85-7.36C221.35 31.27 218.03 28.34 214.5 28.34z" fill="#FFF"/><path d="M232.83 33.61v11.54h-2.9V19.51h2.9v11.39h14.8V19.51h2.89v25.65h-2.89V33.61H232.83z" fill="#FFF"/><path d="M256.46 22.07v-3.11h3.23v3.11H256.46zM256.65 45.16V26.22h2.82v18.94H256.65z" fill="#FFF"/><path d="M268.93 39.76c0 2.31 1.28 3.16 3.19 3.16 0.95 0 1.75-0.18 2.74-0.66v2.41c-0.99 0.52-2.05 0.81-3.41 0.81 -3.04 0-5.35-1.51-5.35-5.35V28.7h-2.64v-2.49h2.64v-5.72h2.83v5.72h6v2.49h-6V39.76z" fill="#FFF"/><path d="M31.57 0.35C14.09 0.35-0.07 14.52-0.07 32c0 17.48 14.16 31.65 31.64 31.65 17.48 0 31.65-14.17 31.65-31.65C63.22 14.52 49.04 0.35 31.57 0.35zM16.62 45.31h-5.45V37.39h5.45V45.31zM24.8 45.31h-5.46v-13.19h5.46V45.31zM32.98 45.31h-5.45V21.57h5.45V45.31zM41.16 45.31h-5.46V26.84h5.46V45.31zM49.34 45.31h-5.46v-5.27h5.46V45.31zM49.34 37.39h-5.46V16.3h5.46V37.39z" fill="#FFF"/></g><g id="Layer_1"/></svg>